<svg id="图层_1" data-name="图层 1" xmlns="http://www.w3.org/2000/svg" xmlns:xlink="http://www.w3.org/1999/xlink" viewBox="0 0 297.42 442.47"><defs><style>.cls-1{fill:url(#未命名的渐变_2);}.cls-2{fill:url(#未命名的渐变_2-2);}</style><linearGradient id="未命名的渐变_2" x1="147.07" y1="458.45" x2="353.89" y2="337.04" gradientUnits="userSpaceOnUse"><stop offset="0" stop-color="#45f5a9"/><stop offset="1" stop-color="#1abecc"/></linearGradient><linearGradient id="未命名的渐变_2-2" x1="114.56" y1="189.89" x2="376.09" y2="237.54" xlink:href="#未命名的渐变_2"/></defs><title>第三版logo</title><path class="cls-1" d="M354.13,337.89a39.5,39.5,0,0,1,4,29.93A38.85,38.85,0,0,1,340,391.69L200.82,472a39.55,39.55,0,0,1-54.33-53.1,38.66,38.66,0,0,1,14.83-15.32l139.14-80.33A39.33,39.33,0,0,1,354.13,337.89Z" transform="translate(-107.29 -34.76)"/><path class="cls-2" d="M193.1,251c3.55,5.91,11.38,7.61,17.36,4.16l169.66-97.95c.28-.16.56-.31.85-.45,8.13-4,17.86.68,20.46,9.37A79,79,0,0,1,365.18,257L125.73,395.29a8.22,8.22,0,0,1-5,.8,15.27,15.27,0,0,1-13.38-14.4c0-.08,0-.16,0-.24,0-.67-.06-1.34-.06-2v-162a39.48,39.48,0,0,1,19.78-34.24L381,36.59c.29-.17.59-.32.89-.47,7.58-3.74,16.63.61,19.17,8.66a79,79,0,0,1-35.86,92.16L197.57,233.72A12.5,12.5,0,0,0,193.1,251Z" transform="translate(-107.29 -34.76)"/></svg>