<?xml version="1.0" encoding="UTF-8" standalone="no"?>
<!DOCTYPE svg PUBLIC "-//W3C//DTD SVG 1.1//EN" "http://www.w3.org/Graphics/SVG/1.1/DTD/svg11.dtd">
<svg width="100%" height="100%" viewBox="0 0 200 200" version="1.1" xmlns="http://www.w3.org/2000/svg" xmlns:xlink="http://www.w3.org/1999/xlink" xml:space="preserve" xmlns:serif="http://www.serif.com/" style="fill-rule:evenodd;clip-rule:evenodd;stroke-linejoin:round;stroke-miterlimit:2;">
    <g transform="matrix(1,0,0,1,-4.95533e-11,2.75917)">
        <path d="M145.163,169.866C145.538,169.491 146.047,169.28 146.577,169.28C147.107,169.28 147.616,169.491 147.991,169.866C152.707,174.582 167.983,189.858 174.794,196.669C175.352,197.227 176.192,197.394 176.921,197.092C177.65,196.79 178.125,196.079 178.125,195.29L178.125,28.125C178.125,24.668 175.332,21.875 171.875,21.875L28.125,21.875C24.668,21.875 21.875,24.668 21.875,28.125L21.875,171.875C21.875,175.332 24.668,178.125 28.125,178.125L132.752,178.125C135.411,178.125 137.96,177.069 139.84,175.189C141.605,173.424 143.772,171.257 145.163,169.866ZM141.113,132.109C138.867,132.383 132.344,121.816 132.344,121.816C132.344,127.93 129.18,135.918 122.363,141.699C125.664,142.715 133.086,145.449 131.328,148.418C129.902,150.82 106.797,149.961 100.117,149.199C93.437,149.941 70.332,150.82 68.906,148.418C67.129,145.449 74.551,142.715 77.852,141.699C71.016,135.937 67.871,127.949 67.871,121.816C67.871,121.816 61.348,132.383 59.102,132.109C58.047,131.973 56.68,126.328 60.937,112.637C62.949,106.191 65.234,100.82 68.789,91.973C68.184,69.141 77.637,49.98 100.117,49.98C122.363,49.98 132.012,68.75 131.445,91.973C134.98,100.801 137.285,106.191 139.297,112.637C143.535,126.328 142.148,131.992 141.113,132.109Z"/>
    </g>
</svg>
